<svg id="Capa_1" enable-background="new 0 0 512 512" height="512" viewBox="0 0 512 512" width="512" xmlns="http://www.w3.org/2000/svg" xmlns:xlink="http://www.w3.org/1999/xlink"><linearGradient id="SVGID_1_" gradientUnits="userSpaceOnUse" x1="256" x2="256" y1="436.229" y2="75.771"><stop offset="0" stop-color="#a93aff"/><stop offset="1" stop-color="#ff81ff"/></linearGradient><g><g><path d="m453.639 105.469c-31.614-19.428-75.408-29.698-126.646-29.698-55.284 0-116.446 12.309-165.784 33.157-15.192-20.457-39.119-32.699-65.272-32.699h-48.937c-4.619 0-8.98 2.128-11.823 5.769s-3.85 8.388-2.729 12.869l25.34 101.362h-42.788c-8.284 0-15 6.716-15 15s6.716 15 15 15h42.788l-25.34 101.362c-1.121 4.481-.114 9.229 2.729 12.869 2.843 3.641 7.204 5.769 11.823 5.769h48.938c26.155 0 50.084-12.244 65.276-32.705 24.707 10.441 52.374 18.742 80.786 24.427v83.277c0 8.284 6.716 15 15 15h120c8.284 0 15-6.716 15-15v-80.841c23.645-4.969 44.455-12.822 61.652-23.393 36.909-22.686 58.348-58.583 58.348-105.764 0 0 0 0 0-.001 0 0 0-.002 0-.003 0-44.323-19.067-81.61-58.361-105.757zm-126.646.302c48.975 0 109.591 10.592 138.303 50.029-38.96-16.149-96.247-19.798-138.303-19.798-61.134 0-142.304 8.121-200.337 25.743 44.073-31.555 123.688-55.974 200.337-55.974zm-231.055.458c14.469 0 27.855 5.937 37.404 16.092-22.947 12.52-40.701 26.504-52.755 41.405l-14.374-57.497zm0 210h-29.726l14.375-57.503c12.056 14.9 29.811 28.884 52.76 41.405-9.549 10.159-22.938 16.098-37.409 16.098zm266.062 90h-90v-63.296c18.559 2.459 37.103 3.76 55.027 3.76 12.095 0 23.77-.58 34.973-1.71zm-34.973-89.536c-80.364 0-158.97-26.338-200.374-55.983 8.62 2.618 18.066 5.111 28.328 7.463 49.965 11.452 114.281 18.289 172.046 18.289 42.217 0 99.384-3.677 138.271-19.796-28.696 39.423-89.261 50.027-138.271 50.027zm154.973-105.461c-.001 22.97-44.532 34.095-63.679 37.813-51.949 10.085-130.212 9.856-204.247-.598-34.47-4.867-64.634-11.5-87.232-19.181-25.338-8.612-32.615-15.726-34.425-18.037 1.808-2.311 9.08-9.422 34.405-18.033 22.59-7.68 52.745-14.312 87.207-19.178 74.012-10.453 152.269-10.685 204.232-.606 19.165 3.717 63.739 14.842 63.739 37.818z" fill="url(#SVGID_1_)"/></g></g></svg>