<svg id="Capa_1" enable-background="new 0 0 512 512" height="512" viewBox="0 0 512 512" width="512" xmlns="http://www.w3.org/2000/svg" xmlns:xlink="http://www.w3.org/1999/xlink"><linearGradient id="SVGID_1_" gradientUnits="userSpaceOnUse" x1="256" x2="256" y1="512" y2="0"><stop offset="0" stop-color="#00b59c"/><stop offset="1" stop-color="#9cffac"/></linearGradient><g><g><path d="m447.965 462.935-27.025-299.284c-.699-7.73-7.179-13.651-14.94-13.651h-45.424c-2.081-37.132-11.863-71.764-28.074-98.784-19.817-33.027-46.986-51.216-76.502-51.216s-56.686 18.189-76.502 51.216c-16.211 27.02-25.993 61.652-28.074 98.784h-45.424c-7.762 0-14.241 5.921-14.939 13.651l-27.025 299.274c-1.143 12.561 3.081 25.106 11.586 34.42s20.616 14.655 33.228 14.655h294.299c12.612 0 24.724-5.341 33.229-14.655s12.728-21.859 11.587-34.41zm-191.965-432.935c37.843 0 70.214 53.57 74.511 120h-149.022c4.297-66.43 36.668-120 74.511-120zm158.225 447.115c-2.877 3.15-6.811 4.885-11.076 4.885h-294.299c-4.266 0-8.199-1.735-11.076-4.885-2.876-3.15-4.248-7.225-3.86-11.482l25.793-285.633h272.586l25.794 285.642c.386 4.249-.986 8.323-3.862 11.473zm-68.225-250.115h-180c-8.284 0-15 6.716-15 15v180c0 8.284 6.716 15 15 15h180c8.284 0 15-6.716 15-15v-180c0-8.284-6.716-15-15-15zm-105 30h30v35.729l-8.292-4.146c-4.223-2.111-9.193-2.111-13.416 0l-8.292 4.146zm90 150h-150v-150h30v60c0 5.199 2.691 10.027 7.114 12.76s9.943 2.981 14.594.657l23.292-11.646 23.292 11.646c4.668 2.334 10.191 2.065 14.594-.657 4.423-2.733 7.114-7.561 7.114-12.76v-60h30z" fill="url(#SVGID_1_)"/></g></g></svg>