<svg id="Capa_1" enable-background="new 0 0 512 512" height="512" viewBox="0 0 512 512" width="512" xmlns="http://www.w3.org/2000/svg" xmlns:xlink="http://www.w3.org/1999/xlink"><linearGradient id="SVGID_1_" gradientUnits="userSpaceOnUse" x1="256" x2="256" y1="496" y2="16"><stop offset="0" stop-color="#5558ff"/><stop offset="1" stop-color="#00c0ff"/></linearGradient><g><g><path d="m497 16h-482c-8.284 0-15 6.716-15 15v360c0 8.284 6.716 15 15 15h166v60h-45c-8.284 0-15 6.716-15 15s6.716 15 15 15h240c8.284 0 15-6.716 15-15s-6.716-15-15-15h-45v-60h166c8.284 0 15-6.716 15-15v-360c0-8.284-6.716-15-15-15zm-196 450h-90v-60h90zm181-90h-452v-330h452zm-316-60h180c8.284 0 15-6.716 15-15v-180c0-8.284-6.716-15-15-15h-180c-8.284 0-15 6.716-15 15v180c0 8.284 6.716 15 15 15zm75-180h30v35.729l-8.292-4.146c-4.223-2.112-9.193-2.112-13.416 0l-8.292 4.146zm-60 0h30v60c0 5.199 2.692 10.027 7.114 12.76s9.944 2.981 14.594.657l23.292-11.646 23.292 11.646c4.659 2.329 10.181 2.071 14.594-.657 4.422-2.733 7.114-7.561 7.114-12.76v-60h30v150h-150z" fill="url(#SVGID_1_)"/></g></g></svg>